<svg xmlns="http://www.w3.org/2000/svg"  viewBox="0 0 24 24" width="24px" height="24px"><path d="M 4.5644531 3.9941406 C 3.3391769 3.9941406 2.2088838 4.898427 2.0351562 6.2128906 C 2.028717 6.2544778 2.0259274 6.2974394 2.0214844 6.3398438 C 2.0154421 6.4127696 2 6.48142 2 6.5566406 L 2 18 C 2 19.657 3.343 21 5 21 L 7 21 C 7.552 21 8 20.552 8 20 L 8 12.421875 L 11.722656 14.892578 A 0.50005 0.50005 0 0 0 12.275391 14.892578 L 16 12.441406 L 16 20.451172 C 16 20.754172 16.246828 21 16.548828 21 L 19.451172 21 C 20.859172 21 22 19.858172 22 18.451172 L 22 6.5664062 C 22 5.0614063 20.764688 3.9980469 19.429688 3.9980469 C 19.402413 3.9980469 19.374997 4.0030134 19.347656 4.0039062 C 19.330594 4.0039569 19.313959 3.9996073 19.296875 4 C 19.268893 4.0006431 19.24092 4.0120998 19.212891 4.0136719 C 19.094081 4.0239993 18.975975 4.0443128 18.857422 4.0722656 C 18.543024 4.1354581 18.231427 4.2370611 17.939453 4.4316406 L 17.939453 4.4296875 L 12 8.3808594 L 6.0605469 4.4414062 L 6.0585938 4.4414062 C 5.8166792 4.2802757 5.561522 4.1773753 5.3027344 4.1074219 C 5.0580382 4.03188 4.8095266 3.9941406 4.5644531 3.9941406 z M 4.5820312 4.9960938 C 4.8705333 4.9994681 5.1476126 5.0814982 5.4023438 5.2460938 L 7 6.2753906 L 7 10.556641 L 3.0019531 7.9042969 L 3.0019531 6.6132812 C 3.0019531 5.9681967 3.3432302 5.4596357 3.8183594 5.1933594 C 3.840684 5.1812534 3.8639377 5.1711784 3.8867188 5.1601562 C 3.9754063 5.1159146 4.0682595 5.0817659 4.1640625 5.0546875 C 4.1974081 5.045548 4.2300228 5.0322895 4.2636719 5.0253906 C 4.3673636 5.0033655 4.4741487 4.9967417 4.5820312 4.9960938 z M 19.429688 4.9980469 C 19.712812 4.9980469 20.003955 5.0838418 20.257812 5.2402344 C 20.362827 5.3049304 20.458031 5.3860716 20.546875 5.4746094 C 20.620836 5.5519173 20.692212 5.6320168 20.75 5.7246094 C 20.756161 5.7340763 20.761614 5.7442729 20.767578 5.7539062 C 20.837656 5.8718291 20.896648 5.9999085 20.935547 6.1386719 C 20.976228 6.2837931 20.998047 6.439202 20.998047 6.6035156 L 20.998047 7.9550781 L 17 10.585938 L 17 6.2753906 L 18.589844 5.2519531 C 18.851844 5.0839531 19.133688 4.9980469 19.429688 4.9980469 z M 16 6.921875 L 16 11.244141 L 12.001953 13.875 L 8 11.220703 L 8 6.9296875 L 11.724609 9.3984375 A 0.50005 0.50005 0 0 0 12.277344 9.3964844 L 16 6.921875 z M 3 9.1035156 L 7 11.757812 L 7 20 L 5 20 C 3.897 20 3 19.103 3 18 L 3 9.1035156 z M 21 9.1523438 L 21 18.453125 C 21 19.306125 20.305172 20 19.451172 20 L 17 20 L 17 11.783203 L 21 9.1523438 z"/></svg>