<svg xmlns="http://www.w3.org/2000/svg"  viewBox="0 0 24 24" width="24px" height="24px"><path d="M 4.7929688 3 L 3 4.7929688 L 3 19.207031 L 4.7929688 21 L 19.207031 21 L 19.353516 20.853516 L 21 19.207031 L 21 4.7929688 L 19.207031 3 L 4.7929688 3 z M 5.2070312 4 L 18.792969 4 L 20 5.2070312 L 20 18.792969 L 18.792969 20 L 5.2070312 20 L 4 18.792969 L 4 5.2070312 L 5.2070312 4 z M 13 7 L 13 14 C 13 15.110906 12.110906 16 11 16 C 9.8890941 16 9 15.110906 9 14 C 9 12.889094 9.8890941 12 11 12 C 11.283903 12 11.552371 12.0615 11.800781 12.169922 L 12.199219 11.251953 C 11.833629 11.09238 11.428097 11 11 11 C 9.3489059 11 8 12.348906 8 14 C 8 15.651094 9.3489059 17 11 17 C 12.651094 17 14 15.651094 14 14 L 14 9.8027344 C 14.006031 9.8093248 14.009538 9.8176706 14.015625 9.8242188 C 14.7013 10.561828 15.732389 11 17 11 L 17 10 C 15.954611 10 15.234122 9.6674223 14.748047 9.1445312 C 14.261972 8.6216403 14 7.8779615 14 7 L 13 7 z"/></svg>